<?xml version="1.0" encoding="utf-8"?>
<!-- Generator: Adobe Illustrator 19.2.1, SVG Export Plug-In . SVG Version: 6.00 Build 0)  -->
<svg version="1.1" id="Layer_1" xmlns="http://www.w3.org/2000/svg" xmlns:xlink="http://www.w3.org/1999/xlink" x="0px" y="0px"
	 viewBox="0 0 491.9 366.3" style="enable-background:new 0 0 491.9 366.3;" xml:space="preserve">
<style type="text/css">
	.st0{fill:#231F20;}
</style>
<path id="check" class="st0" d="M486.4,70.8L196.6,360.6c-7.2,7.3-18.9,7.3-26.2,0.1c0,0-0.1-0.1-0.1-0.1l-5.9-5.8l0,0l-6.4-6.4
	L130.7,321c-0.1-0.2-0.3-0.4-0.4-0.6L5,194.2c-7.3-7.3-7.3-19.1,0-26.3c0,0,0,0,0,0l39.5-39.5c7.2-7.3,18.9-7.3,26.2-0.1
	c0,0,0.1,0.1,0.1,0.1l112.7,113.5l237-237c7.3-7.3,19.1-7.3,26.4,0l39.5,39.5C493.7,51.6,493.7,63.5,486.4,70.8
	C486.4,70.8,486.4,70.8,486.4,70.8z"/>
</svg>
