<?xml version="1.0" encoding="utf-8"?>
<!-- Generator: Adobe Illustrator 19.2.1, SVG Export Plug-In . SVG Version: 6.00 Build 0)  -->
<svg version="1.1" id="Layer_1" xmlns="http://www.w3.org/2000/svg" xmlns:xlink="http://www.w3.org/1999/xlink" x="0px" y="0px"
	 viewBox="0 0 32 32" style="enable-background:new 0 0 32 32;" xml:space="preserve">
<g>
	<path d="M30,6h-8c-1.1,0-2,0.9-2,2c0,0-0.3,1.8-2,2H4c-1.1,0-2,0.9-2,2v18c0,1.1,0.9,2,2,2h26c1.1,0,2-0.9,2-2V8
		C32,6.9,31.1,6,30,6z M23,22H11c-0.6,0-1-0.4-1-1s0.4-1,1-1h12c0.6,0,1,0.4,1,1S23.6,22,23,22z"/>
</g>
</svg>
